solid OpenSCAD_Model
  facet normal 1 0 0
    outer loop
      vertex 0.2 -0.05 1
      vertex 0.2 0 1
      vertex 0.2 0 1.1
    endloop
  endfacet
  facet normal -1 0 0
    outer loop
      vertex 0 0 1
      vertex 0 -0.05 1
      vertex 0 0 1.1
    endloop
  endfacet
  facet normal 0 0 -1
    outer loop
      vertex 0 -0.05 0
      vertex 0.2 0 0
      vertex 0.2 -0.05 0
    endloop
  endfacet
  facet normal -0 0 -1
    outer loop
      vertex 0.2 0 0
      vertex 0 -0.05 0
      vertex 0 0 0
    endloop
  endfacet
  facet normal 0 -1 0
    outer loop
      vertex 0 -0.05 0
      vertex 0.2 -0.05 1
      vertex 0 -0.05 1
    endloop
  endfacet
  facet normal 0 -1 -0
    outer loop
      vertex 0.2 -0.05 1
      vertex 0 -0.05 0
      vertex 0.2 -0.05 0
    endloop
  endfacet
  facet normal -0 0 1
    outer loop
      vertex 0 0 1
      vertex 0.2 -0.05 1
      vertex 0.2 0 1
    endloop
  endfacet
  facet normal 0 0 1
    outer loop
      vertex 0.2 -0.05 1
      vertex 0 0 1
      vertex 0 -0.05 1
    endloop
  endfacet
  facet normal 1 -0 0
    outer loop
      vertex 0.2 -0.05 1
      vertex 0.2 0 0
      vertex 0.2 0 1
    endloop
  endfacet
  facet normal 1 0 0
    outer loop
      vertex 0.2 0 0
      vertex 0.2 -0.05 1
      vertex 0.2 -0.05 0
    endloop
  endfacet
  facet normal 0 1 -0
    outer loop
      vertex 0.2 0 0
      vertex 0 0 1
      vertex 0.2 0 1
    endloop
  endfacet
  facet normal 0 1 0
    outer loop
      vertex 0 0 1
      vertex 0.2 0 0
      vertex 0 0 0
    endloop
  endfacet
  facet normal -1 0 0
    outer loop
      vertex 0 -0.05 0
      vertex 0 0 1
      vertex 0 0 0
    endloop
  endfacet
  facet normal -1 -0 0
    outer loop
      vertex 0 0 1
      vertex 0 -0.05 0
      vertex 0 -0.05 1
    endloop
  endfacet
  facet normal 0 -0.894427 0.447214
    outer loop
      vertex 0 -0.05 1
      vertex 0.2 0 1.1
      vertex 0 0 1.1
    endloop
  endfacet
  facet normal 0 -0.894427 0.447214
    outer loop
      vertex 0.2 0 1.1
      vertex 0 -0.05 1
      vertex 0.2 -0.05 1
    endloop
  endfacet
  facet normal 0 1 -0
    outer loop
      vertex 0.2 0 1
      vertex 0 0 1.1
      vertex 0.2 0 1.1
    endloop
  endfacet
  facet normal 0 1 0
    outer loop
      vertex 0 0 1.1
      vertex 0.2 0 1
      vertex 0 0 1
    endloop
  endfacet
endsolid OpenSCAD_Model
