# Blender v2.79 (sub 0) OBJ File: ''
# www.blender.org
mtllib test.mtl
o Faceofjoint.001_Faceofjoint.002
v 0.200000 1.000000 0.050000
v 0.200000 1.000000 0.000000
v 0.200000 1.100000 0.000000
v 0.000000 1.000000 0.000000
v 0.000000 1.000000 0.050000
v 0.000000 1.100000 0.000000
v 0.000000 0.000000 0.050000
v 0.200000 0.000000 0.000000
v 0.200000 0.000000 0.050000
v 0.000000 0.000000 0.000000
vn 1.0000 0.0000 0.0000
vn -1.0000 0.0000 0.0000
vn 0.0000 -1.0000 0.0000
vn 0.0000 0.0000 1.0000
vn 0.0000 1.0000 0.0000
vn 0.0000 0.0000 -1.0000
vn 0.0000 0.4472 0.8944
usemtl None
s off
f 1//1 2//1 3//1
f 4//2 5//2 6//2
f 7//3 8//3 9//3
f 8//3 7//3 10//3
f 7//4 1//4 5//4
f 1//4 7//4 9//4
f 4//5 1//5 2//5
f 1//5 4//5 5//5
f 1//1 8//1 2//1
f 8//1 1//1 9//1
f 8//6 4//6 2//6
f 4//6 8//6 10//6
f 7//2 4//2 10//2
f 4//2 7//2 5//2
f 5//7 3//7 6//7
f 3//7 5//7 1//7
f 2//6 6//6 3//6
f 6//6 2//6 4//6
o Faceofjoint_Faceofjoint.001
v 0.200000 1.000000 0.050000
v 0.200000 1.000000 0.000000
v 0.200000 1.100000 0.000000
v 0.000000 1.000000 0.000000
v 0.000000 1.000000 0.050000
v 0.000000 1.100000 0.000000
v 0.000000 0.000000 0.050000
v 0.200000 0.000000 0.000000
v 0.200000 0.000000 0.050000
v 0.000000 0.000000 0.000000
vn 1.0000 0.0000 0.0000
vn -1.0000 0.0000 0.0000
vn 0.0000 -1.0000 0.0000
vn 0.0000 0.0000 1.0000
vn 0.0000 1.0000 0.0000
vn 0.0000 0.0000 -1.0000
vn 0.0000 0.4472 0.8944
usemtl None
s off
f 11//8 12//8 13//8
f 14//9 15//9 16//9
f 17//10 18//10 19//10
f 18//10 17//10 20//10
f 17//11 11//11 15//11
f 11//11 17//11 19//11
f 14//12 11//12 12//12
f 11//12 14//12 15//12
f 11//8 18//8 12//8
f 18//8 11//8 19//8
f 18//13 14//13 12//13
f 14//13 18//13 20//13
f 17//9 14//9 20//9
f 14//9 17//9 15//9
f 15//14 13//14 16//14
f 13//14 15//14 11//14
f 12//13 16//13 13//13
f 16//13 12//13 14//13
